# xmcd CD database file
#
# Track frame offsets:
#	150
#	24671
#	40082
#	53088
#	77158
#	94744
#	127588
#	145372
#	163261
#	189560
#	203578
#	223276
#
# Disc length: 3349 seconds
#
# Revision: 0
# Processed by: cddbd v1.4PL0 Copyright (c) Steve Scherf et al.
# Submitted via: CDex 1.40Beta9
#
DISCID=a50d130c
DTITLE=MicroWave Dave - Gotta Get A Cadillac
DYEAR=1900
DGENRE=Blues
TTITLE0=Room With A View Of The Blues
TTITLE1=Look At The Cadillac
TTITLE2=The River's Invitation
TTITLE3=Rock Me Baby
TTITLE4=Georgia Swing
TTITLE5=Cryin' Won't Help You
TTITLE6=It Hurts Me Too
TTITLE7=Theme From "Peter Gun"
TTITLE8=Have You Ever Loved A Woman
TTITLE9=Further On Up The Road
TTITLE10=Take Out Some Insurance
TTITLE11=Too Tall To Mambo
EXTD=ID3G: 0
EXTT0=
EXTT1=
EXTT2=
EXTT3=
EXTT4=
EXTT5=
EXTT6=
EXTT7=
EXTT8=
EXTT9=
EXTT10=
EXTT11=
PLAYORDER=
